<?xml version="1.0" encoding="utf-8"?>
<!-- Generator: Adobe Illustrator 24.3.0, SVG Export Plug-In . SVG Version: 6.00 Build 0)  -->
<svg version="1.1" id="圖層_1" xmlns="http://www.w3.org/2000/svg" xmlns:xlink="http://www.w3.org/1999/xlink" x="0px" y="0px"
	 viewBox="0 0 15 12" style="enable-background:new 0 0 15 12;" xml:space="preserve">
<style type="text/css">
	.st0{fill:#601434;}
</style>
<g>
	<g>
		<g>
			<path class="st0" d="M15,4.5v-3C15,0.67,14.33,0,13.5,0h-12C0.68,0,0.01,0.67,0.01,1.5v3C0.83,4.5,1.5,5.17,1.5,6S0.83,7.5,0,7.5
				v3C0,11.33,0.68,12,1.5,12h12c0.83,0,1.5-0.67,1.5-1.5v-3c-0.83,0-1.5-0.67-1.5-1.5S14.17,4.5,15,4.5z M8.25,10.13h-1.5v-1.5h1.5
				V10.13z M8.25,6.75h-1.5v-1.5h1.5V6.75z M8.25,3.38h-1.5v-1.5h1.5V3.38z"/>
		</g>
	</g>
</g>
</svg>
